grf
version=1
nRows=6
nColumns=37
inDegrees=no
endheader
time	ground_force_1_vx	ground_force_1_vy	ground_force_1_vz	ground_force_1_px	ground_force_1_py	ground_force_1_pz	ground_moment_1_mx	ground_moment_1_my	ground_moment_1_mz	ground_force_2_vx	ground_force_2_vy	ground_force_2_vz	ground_force_2_px	ground_force_2_py	ground_force_2_pz	ground_moment_2_mx	ground_moment_2_my	ground_moment_2_mz	ground_force_3_vx	ground_force_3_vy	ground_force_3_vz	ground_force_3_px	ground_force_3_py	ground_force_3_pz	ground_moment_3_mx	ground_moment_3_my	ground_moment_3_mz	ground_force_4_vx	ground_force_4_vy	ground_force_4_vz	ground_force_4_px	ground_force_4_py	ground_force_4_pz	ground_moment_4_mx	ground_moment_4_my	ground_moment_4_mz
      3.09000000	      0.00000000	     -0.00000000	      0.00000000	      0.00000000	      0.00000000	      0.00000000	      0.00000000	      0.00000000	      0.00000000	     21.48905373	     29.34445763	   -434.16073608	   -342.10962931	  -1116.14361295	      0.00000000	      0.00000000	      0.00000000	   9975.11071303	     -6.73147625	    -26.63161219	   -414.09381104	   -295.30663175	   -655.85637713	      0.00000000	      0.00000000	     -0.00000000	 -15346.49384815	      0.00000000	     -0.00000000	      0.00000000	      0.00000000	      0.00000000	      0.00000000	      0.00000000	      0.00000000	      0.00000000
      3.10000000	      0.00000000	     -0.00000000	      0.00000000	      0.00000000	      0.00000000	      0.00000000	      0.00000000	      0.00000000	      0.00000000	     20.90048409	     30.10947800	   -436.59619141	   -341.99532293	  -1116.97795669	      0.00000000	      0.00000000	      0.00000000	   9874.76063785	     -7.02456135	    -26.66770301	   -413.06787109	   -294.90366872	   -656.93483802	      0.00000000	      0.00000000	     -0.00000000	 -15351.97389793	      0.00000000	     -0.00000000	      0.00000000	      0.00000000	      0.00000000	      0.00000000	      0.00000000	      0.00000000	      0.00000000
      3.11000000	      0.00000000	     -0.00000000	      0.00000000	      0.00000000	      0.00000000	      0.00000000	      0.00000000	      0.00000000	      0.00000000	     20.53002739	     30.19093895	   -437.61291504	   -341.89864167	  -1117.54093238	      0.00000000	      0.00000000	      0.00000000	   9888.12135226	     -7.49893128	    -25.79564220	   -414.91027832	   -294.98797112	   -657.01668826	      0.00000000	      0.00000000	     -0.00000000	 -15553.04781196	      0.00000000	     -0.00000000	      0.00000000	      0.00000000	      0.00000000	      0.00000000	      0.00000000	      0.00000000	      0.00000000
      3.12000000	      0.00000000	     -0.00000000	      0.00000000	      0.00000000	      0.00000000	      0.00000000	      0.00000000	      0.00000000	      0.00000000	     20.79208755	     29.64490891	   -435.82403564	   -342.79498710	  -1115.72010622	      0.00000000	      0.00000000	      0.00000000	   9955.54870419	     -9.06043848	    -25.56615560	   -418.95846558	   -294.64690935	   -656.93614226	      0.00000000	      0.00000000	     -0.00000000	 -15607.75283322	      0.00000000	     -0.00000000	      0.00000000	      0.00000000	      0.00000000	      0.00000000	      0.00000000	      0.00000000	      0.00000000
      3.13000000	      0.00000000	     -0.00000000	      0.00000000	      0.00000000	      0.00000000	      0.00000000	      0.00000000	      0.00000000	      0.00000000	     20.97072792	     28.81413078	   -437.23675537	   -342.12606609	  -1117.04388885	      0.00000000	      0.00000000	      0.00000000	   9771.54421113	    -10.27808126	    -25.43664461	   -420.91445923	   -294.25032051	   -657.22550446	      0.00000000	      0.00000000	     -0.00000000	 -15696.11101347	      0.00000000	     -0.00000000	      0.00000000	      0.00000000	      0.00000000	      0.00000000	      0.00000000	      0.00000000	      0.00000000
      3.14000000	      0.00000000	     -0.00000000	      0.00000000	      0.00000000	      0.00000000	      0.00000000	      0.00000000	      0.00000000	      0.00000000	     20.73168182	     28.59555244	   -433.31689453	   -342.44944238	  -1115.74252366	      0.00000000	      0.00000000	      0.00000000	   9811.38204452	    -10.51544703	    -25.97938636	   -421.28942871	   -293.46769999	   -657.55518408	      0.00000000	      0.00000000	     -0.00000000	 -15841.59134220	      0.00000000	     -0.00000000	      0.00000000	      0.00000000	      0.00000000	      0.00000000	      0.00000000	      0.00000000	      0.00000000
